# xmcd
#
# Track frame offsets: 
#        150
#        13926
#        21773
#        32502
#        43022
#        55543
#        63706
#        74408
#        85450
#        98159
#        110265
#        120670
#        131409
#        142322
#        150406
#        159385
#
# Disc length: 2271 seconds
#
# Revision: 0
# Processed by: cddbd v1.5.2PL0 Copyright (c) Steve Scherf et al.
# Submitted via: ExactAudioCopy v0.99pb4
#
DISCID=d608dd10
DTITLE=The Starliters - Stop Kiddin'
DYEAR=2008
DGENRE=Rock and Roll
TTITLE0=Come On Stroll
TTITLE1=Don't Wanna Fly Back Home
TTITLE2=I Do It Every Time
TTITLE3=I'll Never Be Your Man
TTITLE4=I'm Not A Kid Anymore
TTITLE5=I'm Wasting My Time
TTITLE6=It's All Your Fault
TTITLE7=Little Grass Shack
TTITLE8=Long Gone Train
TTITLE9=Once Again With You
TTITLE10=Take And Give
TTITLE11=Tennessee Local
TTITLE12=The Honky Tonk Dream
TTITLE13=This Chick Drinks More Than Me
TTITLE14=Where My Little Love Has Gone
TTITLE15=Who Who Boogie
EXTD=
EXTT0=
EXTT1=
EXTT2=
EXTT3=
EXTT4=
EXTT5=
EXTT6=
EXTT7=
EXTT8=
EXTT9=
EXTT10=
EXTT11=
EXTT12=
EXTT13=
EXTT14=
EXTT15=
PLAYORDER=
